# xmcd
#
# Track frame offsets:
# 150
# 15875
# 33930
# 53562
# 82732
# 102134
# 123238
# 142039
# 158132
# 173376
# 194854
# 214957
# 233913
# 258914
#
# Disc length: 3674 seconds
#
#
# Revision: 2
# Processed by: cddbd v1.5.2PL0 Copyright (c) Steve Scherf et al.
# Submitted via: FreeRIP 2.944 
#
DISCID=ab0e580e
DTITLE=Aline Barros - Deus do Impossível
DYEAR=2009
DGENRE=Evangélica
TTITLE0=Deus do Impossível
TTITLE1=Cantarei Teu Amor para Sempre (I Could Sing of Your Love Forever)
TTITLE2=Para Sempre te Adorarei
TTITLE3=O Poder do Teu Amor (The Power of Your Love)
TTITLE4=Senhor, não há Ninguém Como Tu (Lord, There's no one Else Like You)
TTITLE5=Guarda a Tua Fé
TTITLE6=O Cordão de Três Dobras
TTITLE7=Família (Family)
TTITLE8=Quero Te Louvar
TTITLE9=Bem Mais que Tudo (Above All)
TTITLE10=Permanecer Criança
TTITLE11=Nossos Planos
TTITLE12=Bom é Ser Criança
TTITLE13=Noite de Paz [Noite Feliz (Silent Night)]
EXTD=
EXTT0=
EXTT1=
EXTT2=
EXTT3=
EXTT4=
EXTT5=
EXTT6=
EXTT7=
EXTT8=
EXTT9=
EXTT10=
EXTT11=
EXTT12=
EXTT13=
PLAYORDER=
